<?xml version="1.0" encoding="UTF-8" standalone="no"?>
<svg width="146.05mm" height="204.258mm"
 viewBox="0 0 414 579"
 xmlns="http://www.w3.org/2000/svg" xmlns:xlink="http://www.w3.org/1999/xlink"  version="1.2" baseProfile="tiny">
<title>Qt SVG Document</title>
<desc>MATLAB, The MathWorks, Inc. Version 25.2.0.3042426 R2025b Update 1</desc>
<defs>
</defs>
<g fill="none" stroke="black" stroke-width="1" fill-rule="evenodd" stroke-linecap="square" stroke-linejoin="bevel" >

<g fill="#ffffff" fill-opacity="1" stroke="none" transform="matrix(0.449672,0,0,0.436153,-398.858,-49.7117)"
font-family="MS Shell Dlg 2" font-size="8.14286" font-weight="400" font-style="normal" 
>
<path vector-effect="none" fill-rule="evenodd" d="M886,113 L1807,113 L1807,1439 L886,1439 L886,113"/>
</g>

<g fill="#ffffff" fill-opacity="1" stroke="none" transform="matrix(4.49672e-05,0,0,4.36153e-05,-398.858,-49.7117)"
font-family="MS Shell Dlg 2" font-size="8.14286" font-weight="400" font-style="normal" 
>
<path vector-effect="none" fill-rule="evenodd" d="M9.30667e+06,1.18e+06 L9.30667e+06,1.406e+07 L1.78933e+07,1.406e+07 L1.78933e+07,1.18e+06 L9.30667e+06,1.18e+06"/>
</g>

<g fill="#212121" fill-opacity="1" stroke="#212121" stroke-opacity="1" stroke-width="1.16667" stroke-linecap="square" stroke-linejoin="round" transform="matrix(0.449672,0,0,0.436153,-398.858,-49.7117)"
font-family="MS Shell Dlg 2" font-size="8.14286" font-weight="400" font-style="normal" 
>
<polyline fill="none" vector-effect="none" points="930.667,1406 1789.33,1406 " />
<polyline fill="none" vector-effect="none" points="930.667,1406 930.667,1393.12 " />
<polyline fill="none" vector-effect="none" points="1038,1406 1038,1393.12 " />
<polyline fill="none" vector-effect="none" points="1145.33,1406 1145.33,1393.12 " />
<polyline fill="none" vector-effect="none" points="1252.67,1406 1252.67,1393.12 " />
<polyline fill="none" vector-effect="none" points="1360,1406 1360,1393.12 " />
<polyline fill="none" vector-effect="none" points="1467.33,1406 1467.33,1393.12 " />
<polyline fill="none" vector-effect="none" points="1574.67,1406 1574.67,1393.12 " />
<polyline fill="none" vector-effect="none" points="1682,1406 1682,1393.12 " />
<polyline fill="none" vector-effect="none" points="1789.33,1406 1789.33,1393.12 " />
</g>

<g fill="#212121" fill-opacity="1" stroke="#212121" stroke-opacity="1" stroke-width="1" stroke-linecap="square" stroke-linejoin="bevel" transform="matrix(0.449672,0,0,0.436153,10.6433,576.75)"
font-family="Helvetica" font-size="23" font-weight="400" font-style="normal" 
>
<text fill="#212121" fill-opacity="1" stroke="none" xml:space="preserve" x="0" y="0" font-family="Helvetica" font-size="23" font-weight="400" font-style="normal" 
 >-0.4</text>
</g>

<g fill="#212121" fill-opacity="1" stroke="#212121" stroke-opacity="1" stroke-width="1" stroke-linecap="square" stroke-linejoin="bevel" transform="matrix(0.449672,0,0,0.436153,58.9081,576.75)"
font-family="Helvetica" font-size="23" font-weight="400" font-style="normal" 
>
<text fill="#212121" fill-opacity="1" stroke="none" xml:space="preserve" x="0" y="0" font-family="Helvetica" font-size="23" font-weight="400" font-style="normal" 
 >-0.3</text>
</g>

<g fill="#212121" fill-opacity="1" stroke="#212121" stroke-opacity="1" stroke-width="1" stroke-linecap="square" stroke-linejoin="bevel" transform="matrix(0.449672,0,0,0.436153,107.173,576.75)"
font-family="Helvetica" font-size="23" font-weight="400" font-style="normal" 
>
<text fill="#212121" fill-opacity="1" stroke="none" xml:space="preserve" x="0" y="0" font-family="Helvetica" font-size="23" font-weight="400" font-style="normal" 
 >-0.2</text>
</g>

<g fill="#212121" fill-opacity="1" stroke="#212121" stroke-opacity="1" stroke-width="1" stroke-linecap="square" stroke-linejoin="bevel" transform="matrix(0.449672,0,0,0.436153,155.438,576.75)"
font-family="Helvetica" font-size="23" font-weight="400" font-style="normal" 
>
<text fill="#212121" fill-opacity="1" stroke="none" xml:space="preserve" x="0" y="0" font-family="Helvetica" font-size="23" font-weight="400" font-style="normal" 
 >-0.1</text>
</g>

<g fill="#212121" fill-opacity="1" stroke="#212121" stroke-opacity="1" stroke-width="1" stroke-linecap="square" stroke-linejoin="bevel" transform="matrix(0.449672,0,0,0.436153,209.773,576.75)"
font-family="Helvetica" font-size="23" font-weight="400" font-style="normal" 
>
<text fill="#212121" fill-opacity="1" stroke="none" xml:space="preserve" x="0" y="0" font-family="Helvetica" font-size="23" font-weight="400" font-style="normal" 
 >0</text>
</g>

<g fill="#212121" fill-opacity="1" stroke="#212121" stroke-opacity="1" stroke-width="1" stroke-linecap="square" stroke-linejoin="bevel" transform="matrix(0.449672,0,0,0.436153,253.766,576.75)"
font-family="Helvetica" font-size="23" font-weight="400" font-style="normal" 
>
<text fill="#212121" fill-opacity="1" stroke="none" xml:space="preserve" x="0" y="0" font-family="Helvetica" font-size="23" font-weight="400" font-style="normal" 
 >0.1</text>
</g>

<g fill="#212121" fill-opacity="1" stroke="#212121" stroke-opacity="1" stroke-width="1" stroke-linecap="square" stroke-linejoin="bevel" transform="matrix(0.449672,0,0,0.436153,302.031,576.75)"
font-family="Helvetica" font-size="23" font-weight="400" font-style="normal" 
>
<text fill="#212121" fill-opacity="1" stroke="none" xml:space="preserve" x="0" y="0" font-family="Helvetica" font-size="23" font-weight="400" font-style="normal" 
 >0.2</text>
</g>

<g fill="#212121" fill-opacity="1" stroke="#212121" stroke-opacity="1" stroke-width="1" stroke-linecap="square" stroke-linejoin="bevel" transform="matrix(0.449672,0,0,0.436153,350.295,576.75)"
font-family="Helvetica" font-size="23" font-weight="400" font-style="normal" 
>
<text fill="#212121" fill-opacity="1" stroke="none" xml:space="preserve" x="0" y="0" font-family="Helvetica" font-size="23" font-weight="400" font-style="normal" 
 >0.3</text>
</g>

<g fill="#212121" fill-opacity="1" stroke="#212121" stroke-opacity="1" stroke-width="1" stroke-linecap="square" stroke-linejoin="bevel" transform="matrix(0.449672,0,0,0.436153,398.56,576.75)"
font-family="Helvetica" font-size="23" font-weight="400" font-style="normal" 
>
<text fill="#212121" fill-opacity="1" stroke="none" xml:space="preserve" x="0" y="0" font-family="Helvetica" font-size="23" font-weight="400" font-style="normal" 
 >0.4</text>
</g>

<g fill="#212121" fill-opacity="1" stroke="#212121" stroke-opacity="1" stroke-width="1.16667" stroke-linecap="square" stroke-linejoin="round" transform="matrix(0.449672,0,0,0.436153,-398.858,-49.7117)"
font-family="Helvetica" font-size="23" font-weight="400" font-style="normal" 
>
<polyline fill="none" vector-effect="none" points="930.667,1406 930.667,118 " />
<polyline fill="none" vector-effect="none" points="930.667,1298.67 943.547,1298.67 " />
<polyline fill="none" vector-effect="none" points="930.667,1084 943.547,1084 " />
<polyline fill="none" vector-effect="none" points="930.667,869.333 943.547,869.333 " />
<polyline fill="none" vector-effect="none" points="930.667,654.667 943.547,654.667 " />
<polyline fill="none" vector-effect="none" points="930.667,440 943.547,440 " />
<polyline fill="none" vector-effect="none" points="930.667,225.333 943.547,225.333 " />
</g>

<g fill="#212121" fill-opacity="1" stroke="#212121" stroke-opacity="1" stroke-width="1" stroke-linecap="square" stroke-linejoin="bevel" transform="matrix(0.449672,0,0,0.436153,9.59409,520.195)"
font-family="Helvetica" font-size="23" font-weight="400" font-style="normal" 
>
<text fill="#212121" fill-opacity="1" stroke="none" xml:space="preserve" x="0" y="0" font-family="Helvetica" font-size="23" font-weight="400" font-style="normal" 
 >0</text>
</g>

<g fill="#212121" fill-opacity="1" stroke="#212121" stroke-opacity="1" stroke-width="1" stroke-linecap="square" stroke-linejoin="bevel" transform="matrix(0.449672,0,0,0.436153,1.05033,426.568)"
font-family="Helvetica" font-size="23" font-weight="400" font-style="normal" 
>
<text fill="#212121" fill-opacity="1" stroke="none" xml:space="preserve" x="0" y="0" font-family="Helvetica" font-size="23" font-weight="400" font-style="normal" 
 >0.2</text>
</g>

<g fill="#212121" fill-opacity="1" stroke="#212121" stroke-opacity="1" stroke-width="1" stroke-linecap="square" stroke-linejoin="bevel" transform="matrix(0.449672,0,0,0.436153,1.05033,332.94)"
font-family="Helvetica" font-size="23" font-weight="400" font-style="normal" 
>
<text fill="#212121" fill-opacity="1" stroke="none" xml:space="preserve" x="0" y="0" font-family="Helvetica" font-size="23" font-weight="400" font-style="normal" 
 >0.4</text>
</g>

<g fill="#212121" fill-opacity="1" stroke="#212121" stroke-opacity="1" stroke-width="1" stroke-linecap="square" stroke-linejoin="bevel" transform="matrix(0.449672,0,0,0.436153,1.05033,239.313)"
font-family="Helvetica" font-size="23" font-weight="400" font-style="normal" 
>
<text fill="#212121" fill-opacity="1" stroke="none" xml:space="preserve" x="0" y="0" font-family="Helvetica" font-size="23" font-weight="400" font-style="normal" 
 >0.6</text>
</g>

<g fill="#212121" fill-opacity="1" stroke="#212121" stroke-opacity="1" stroke-width="1" stroke-linecap="square" stroke-linejoin="bevel" transform="matrix(0.449672,0,0,0.436153,1.05033,145.685)"
font-family="Helvetica" font-size="23" font-weight="400" font-style="normal" 
>
<text fill="#212121" fill-opacity="1" stroke="none" xml:space="preserve" x="0" y="0" font-family="Helvetica" font-size="23" font-weight="400" font-style="normal" 
 >0.8</text>
</g>

<g fill="#212121" fill-opacity="1" stroke="#212121" stroke-opacity="1" stroke-width="1" stroke-linecap="square" stroke-linejoin="bevel" transform="matrix(0.449672,0,0,0.436153,9.59409,52.0575)"
font-family="Helvetica" font-size="23" font-weight="400" font-style="normal" 
>
<text fill="#212121" fill-opacity="1" stroke="none" xml:space="preserve" x="0" y="0" font-family="Helvetica" font-size="23" font-weight="400" font-style="normal" 
 >1</text>
</g>

<g fill="#000000" fill-opacity="1" stroke="#000000" stroke-opacity="1" stroke-width="4.66667" stroke-linecap="butt" stroke-linejoin="round" transform="matrix(0.449672,0,0,0.436153,-398.858,-49.7117)"
font-family="Helvetica" font-size="23" font-weight="400" font-style="normal" 
>
<polyline fill="none" vector-effect="none" points="1360,225.333 1360,386.333 " />
</g>

<g fill="none" stroke="#000000" stroke-opacity="1" stroke-width="4.66667" stroke-linecap="butt" stroke-linejoin="round" transform="matrix(0.449672,0,0,0.436153,-398.858,-49.7117)"
font-family="Helvetica" font-size="23" font-weight="400" font-style="normal" 
>
<polyline fill="none" vector-effect="none" points="1360,386.333 1199,408.431 1521,452.627 1199,496.824 1521,541.02 1199,585.216 1521,629.412 1199,673.608 1521,717.804 1199,762 1521,806.196 1199,850.392 1521,894.588 1199,938.784 1521,982.98 1199,1027.18 1521,1071.37 1199,1115.57 1360,1137.67 " />
</g>

<g fill="#000000" fill-opacity="1" stroke="#000000" stroke-opacity="1" stroke-width="4.66667" stroke-linecap="butt" stroke-linejoin="round" transform="matrix(0.449672,0,0,0.436153,-398.858,-49.7117)"
font-family="Helvetica" font-size="23" font-weight="400" font-style="normal" 
>
<polyline fill="none" vector-effect="none" points="1360,1137.67 1360,1298.67 " />
</g>
</g>
</svg>
